<svg xmlns="http://www.w3.org/2000/svg" width="1920" height="1080"><path d="M-138,-249L86,-242L463,-265Z" fill="#f7fcc9" stroke="#f7fcc9" stroke-width="1.51"/><path d="M463,-265L873,-248L1540,-260Z" fill="#bce3ab" stroke="#bce3ab" stroke-width="1.51"/><path d="M873,-248L1218,-222L1540,-260Z" fill="#a9d79e" stroke="#a9d79e" stroke-width="1.51"/><path d="M1479,1277L1287,1287L1785,1325Z" fill="#156c3a" stroke="#156c3a" stroke-width="1.51"/><path d="M1287,1287L785,1332L1785,1325Z" fill="#217943" stroke="#217943" stroke-width="1.51"/><path d="M1766,-199L1989,-170L2040,-173Z" fill="#86ac7d" stroke="#86ac7d" stroke-width="1.51"/><path d="M1540,-260L1766,-199L2040,-173Z" fill="#8cb584" stroke="#8cb584" stroke-width="1.51"/><path d="M1972,582L2040,744L2104,550Z" fill="#36854d" stroke="#36854d" stroke-width="1.51"/><path d="M2040,744L2093,892L2104,550Z" fill="#257c45" stroke="#257c45" stroke-width="1.51"/><path d="M1785,1325L785,1332L2126,1343Z" fill="#126637" stroke="#126637" stroke-width="1.51"/><path d="M2081,1161L1907,1254L2126,1343Z" fill="#005530" stroke="#005530" stroke-width="1.51"/><path d="M1907,1254L1785,1325L2126,1343Z" fill="#005730" stroke="#005730" stroke-width="1.51"/><path d="M2029,-56L1935,41L2127,134Z" fill="#79a26a" stroke="#79a26a" stroke-width="1.51"/><path d="M2040,-173L2029,-56L2127,134Z" fill="#7da16d" stroke="#7da16d" stroke-width="1.51"/><path d="M2062,443L2104,550L2127,134Z" fill="#568f59" stroke="#568f59" stroke-width="1.51"/><path d="M2047,267L2062,443L2127,134Z" fill="#61955d" stroke="#61955d" stroke-width="1.51"/><path d="M2093,892L1960,949L2134,969Z" fill="#136b39" stroke="#136b39" stroke-width="1.51"/><path d="M1960,949L2081,1161L2134,969Z" fill="#0c6536" stroke="#0c6536" stroke-width="1.51"/><path d="M2081,1161L2126,1343L2134,969Z" fill="#005931" stroke="#005931" stroke-width="1.51"/><path d="M2104,550L2093,892L2134,969Z" fill="#1e7440" stroke="#1e7440" stroke-width="1.51"/><path d="M2127,134L2104,550L2134,969Z" fill="#3e844f" stroke="#3e844f" stroke-width="1.51"/><path d="M1898,221L2047,267L2127,134Z" fill="#6b9c62" stroke="#6b9c62" stroke-width="1.51"/><path d="M1935,41L1898,221L2127,134Z" fill="#74a267" stroke="#74a267" stroke-width="1.51"/><path d="M2047,267L1959,430L2062,443Z" fill="#57945a" stroke="#57945a" stroke-width="1.51"/><path d="M1960,949L1883,1114L2081,1161Z" fill="#086637" stroke="#086637" stroke-width="1.51"/><path d="M2040,744L1903,838L2093,892Z" fill="#1d7841" stroke="#1d7841" stroke-width="1.51"/><path d="M2062,443L1972,582L2104,550Z" fill="#438b53" stroke="#438b53" stroke-width="1.51"/><path d="M1596,1274L1479,1277L1785,1325Z" fill="#0f6737" stroke="#0f6737" stroke-width="1.51"/><path d="M1903,838L1960,949L2093,892Z" fill="#18733d" stroke="#18733d" stroke-width="1.51"/><path d="M1972,582L1917,660L2040,744Z" fill="#31874c" stroke="#31874c" stroke-width="1.51"/><path d="M1959,430L1972,582L2062,443Z" fill="#4a9056" stroke="#4a9056" stroke-width="1.51"/><path d="M1883,1114L1907,1254L2081,1161Z" fill="#006034" stroke="#006034" stroke-width="1.51"/><path d="M463,-265L692,-240L873,-248Z" fill="#d4eeb5" stroke="#d4eeb5" stroke-width="1.51"/><path d="M986,1281L785,1332L1287,1287Z" fill="#3b864f" stroke="#3b864f" stroke-width="1.51"/><path d="M1989,-170L1950,-93L2029,-56Z" fill="#83a874" stroke="#83a874" stroke-width="1.51"/><path d="M1989,-170L2029,-56L2040,-173Z" fill="#83a676" stroke="#83a676" stroke-width="1.51"/><path d="M1198,1275L986,1281L1287,1287Z" fill="#2e824a" stroke="#2e824a" stroke-width="1.51"/><path d="M1898,221L1959,430L2047,267Z" fill="#619b5f" stroke="#619b5f" stroke-width="1.51"/><path d="M1917,660L1903,838L2040,744Z" fill="#248347" stroke="#248347" stroke-width="1.51"/><path d="M1950,-93L1935,41L2029,-56Z" fill="#80a870" stroke="#80a870" stroke-width="1.51"/><path d="M1898,221L1819,235L1959,430Z" fill="#64a162" stroke="#64a162" stroke-width="1.51"/><path d="M1815,1038L1883,1114L1960,949Z" fill="#0d6f3a" stroke="#0d6f3a" stroke-width="1.51"/><path d="M1959,430L1838,492L1972,582Z" fill="#499357" stroke="#499357" stroke-width="1.51"/><path d="M1766,-199L1950,-93L1989,-170Z" fill="#87ae7b" stroke="#87ae7b" stroke-width="1.51"/><path d="M1825,57L1898,221L1935,41Z" fill="#79a96b" stroke="#79a96b" stroke-width="1.51"/><path d="M1803,-39L1935,41L1950,-93Z" fill="#82ac71" stroke="#82ac71" stroke-width="1.51"/><path d="M1732,362L1838,492L1959,430Z" fill="#559d5d" stroke="#559d5d" stroke-width="1.51"/><path d="M1819,235L1732,362L1959,430Z" fill="#61a261" stroke="#61a261" stroke-width="1.51"/><path d="M1838,492L1917,660L1972,582Z" fill="#3f9053" stroke="#3f9053" stroke-width="1.51"/><path d="M1780,681L1903,838L1917,660Z" fill="#298a4b" stroke="#298a4b" stroke-width="1.51"/><path d="M1903,838L1815,1038L1960,949Z" fill="#15753c" stroke="#15753c" stroke-width="1.51"/><path d="M1766,-199L1803,-39L1950,-93Z" fill="#88b179" stroke="#88b179" stroke-width="1.51"/><path d="M1825,57L1819,235L1898,221Z" fill="#74a969" stroke="#74a969" stroke-width="1.51"/><path d="M1738,854L1815,1038L1903,838Z" fill="#1a7c40" stroke="#1a7c40" stroke-width="1.51"/><path d="M1838,492L1780,681L1917,660Z" fill="#3b9253" stroke="#3b9253" stroke-width="1.51"/><path d="M1803,-39L1825,57L1935,41Z" fill="#80ae70" stroke="#80ae70" stroke-width="1.51"/><path d="M1780,681L1738,854L1903,838Z" fill="#248748" stroke="#248748" stroke-width="1.51"/><path d="M1883,1114L1804,1093L1907,1254Z" fill="#006837" stroke="#006837" stroke-width="1.51"/><path d="M1804,1093L1785,1325L1907,1254Z" fill="#026436" stroke="#026436" stroke-width="1.51"/><path d="M1815,1038L1804,1093L1883,1114Z" fill="#0a6e39" stroke="#0a6e39" stroke-width="1.51"/><path d="M1649,1194L1785,1325L1804,1093Z" fill="#086938" stroke="#086938" stroke-width="1.51"/><path d="M1738,854L1668,1017L1815,1038Z" fill="#1a7a3f" stroke="#1a7a3f" stroke-width="1.51"/><path d="M1614,62L1594,196L1819,235Z" fill="#7bb26d" stroke="#7bb26d" stroke-width="1.51"/><path d="M1614,62L1819,235L1825,57Z" fill="#7cb06d" stroke="#7cb06d" stroke-width="1.51"/><path d="M1601,530L1676,645L1838,492Z" fill="#489c59" stroke="#489c59" stroke-width="1.51"/><path d="M1638,436L1601,530L1838,492Z" fill="#53a15d" stroke="#53a15d" stroke-width="1.51"/><path d="M1732,362L1638,436L1838,492Z" fill="#59a15f" stroke="#59a15f" stroke-width="1.51"/><path d="M1676,645L1780,681L1838,492Z" fill="#409655" stroke="#409655" stroke-width="1.51"/><path d="M1648,795L1738,854L1780,681Z" fill="#298d4a" stroke="#298d4a" stroke-width="1.51"/><path d="M1766,-199L1634,-88L1803,-39Z" fill="#8cb77b" stroke="#8cb77b" stroke-width="1.51"/><path d="M1803,-39L1614,62L1825,57Z" fill="#83b372" stroke="#83b372" stroke-width="1.51"/><path d="M1594,196L1732,362L1819,235Z" fill="#6eab67" stroke="#6eab67" stroke-width="1.51"/><path d="M1668,1017L1804,1093L1815,1038Z" fill="#12743c" stroke="#12743c" stroke-width="1.51"/><path d="M1540,-260L1585,-190L1766,-199Z" fill="#92bd88" stroke="#92bd88" stroke-width="1.51"/><path d="M1634,-88L1614,62L1803,-39Z" fill="#89b776" stroke="#89b776" stroke-width="1.51"/><path d="M1668,1017L1649,1194L1804,1093Z" fill="#11733b" stroke="#11733b" stroke-width="1.51"/><path d="M1676,645L1648,795L1780,681Z" fill="#33934f" stroke="#33934f" stroke-width="1.51"/><path d="M1649,1194L1596,1274L1785,1325Z" fill="#0c6737" stroke="#0c6737" stroke-width="1.51"/><path d="M1585,-190L1634,-88L1766,-199Z" fill="#90bb81" stroke="#90bb81" stroke-width="1.51"/><path d="M1594,196L1638,436L1732,362Z" fill="#69ab65" stroke="#69ab65" stroke-width="1.51"/><path d="M1648,795L1668,1017L1738,854Z" fill="#238444" stroke="#238444" stroke-width="1.51"/><path d="M1594,196L1459,361L1638,436Z" fill="#6db067" stroke="#6db067" stroke-width="1.51"/><path d="M1482,808L1523,1025L1648,795Z" fill="#298b48" stroke="#298b48" stroke-width="1.51"/><path d="M1523,1025L1649,1194L1668,1017Z" fill="#17793e" stroke="#17793e" stroke-width="1.51"/><path d="M1648,795L1523,1025L1668,1017Z" fill="#218242" stroke="#218242" stroke-width="1.51"/><path d="M1601,530L1536,582L1676,645Z" fill="#48a059" stroke="#48a059" stroke-width="1.51"/><path d="M1479,735L1648,795L1676,645Z" fill="#349750" stroke="#349750" stroke-width="1.51"/><path d="M1536,582L1479,735L1676,645Z" fill="#409d56" stroke="#409d56" stroke-width="1.51"/><path d="M92,1309L37,1324L785,1332Z" fill="#749b66" stroke="#749b66" stroke-width="1.51"/><path d="M1513,192L1459,361L1594,196Z" fill="#78b66d" stroke="#78b66d" stroke-width="1.51"/><path d="M1503,-75L1614,62L1634,-88Z" fill="#8ebd79" stroke="#8ebd79" stroke-width="1.51"/><path d="M1479,735L1482,808L1648,795Z" fill="#31964f" stroke="#31964f" stroke-width="1.51"/><path d="M1439,1159L1596,1274L1649,1194Z" fill="#14713b" stroke="#14713b" stroke-width="1.51"/><path d="M1523,1025L1439,1159L1649,1194Z" fill="#18793f" stroke="#18793f" stroke-width="1.51"/><path d="M1487,83L1513,192L1594,196Z" fill="#82ba71" stroke="#82ba71" stroke-width="1.51"/><path d="M1487,83L1594,196L1614,62Z" fill="#84ba72" stroke="#84ba72" stroke-width="1.51"/><path d="M1585,-190L1503,-75L1634,-88Z" fill="#93bf7f" stroke="#93bf7f" stroke-width="1.51"/><path d="M1459,361L1601,530L1638,436Z" fill="#5ea962" stroke="#5ea962" stroke-width="1.51"/><path d="M1439,1159L1479,1277L1596,1274Z" fill="#17723d" stroke="#17723d" stroke-width="1.51"/><path d="M1459,361L1536,582L1601,530Z" fill="#58a961" stroke="#58a961" stroke-width="1.51"/><path d="M1503,-75L1487,83L1614,62Z" fill="#8cbe78" stroke="#8cbe78" stroke-width="1.51"/><path d="M1459,361L1354,530L1536,582Z" fill="#5cae65" stroke="#5cae65" stroke-width="1.51"/><path d="M1540,-260L1503,-75L1585,-190Z" fill="#95c186" stroke="#95c186" stroke-width="1.51"/><path d="M1482,808L1371,984L1523,1025Z" fill="#298b48" stroke="#298b48" stroke-width="1.51"/><path d="M1341,652L1479,735L1536,582Z" fill="#45a45a" stroke="#45a45a" stroke-width="1.51"/><path d="M1218,-222L1333,-164L1540,-260Z" fill="#9fce93" stroke="#9fce93" stroke-width="1.51"/><path d="M1333,-164L1503,-75L1540,-260Z" fill="#99c78a" stroke="#99c78a" stroke-width="1.51"/><path d="M1354,530L1341,652L1536,582Z" fill="#50ab61" stroke="#50ab61" stroke-width="1.51"/><path d="M1310,-39L1487,83L1503,-75Z" fill="#94c67e" stroke="#94c67e" stroke-width="1.51"/><path d="M1379,356L1459,361L1513,192Z" fill="#75b96e" stroke="#75b96e" stroke-width="1.51"/><path d="M1309,193L1379,356L1513,192Z" fill="#7ebf73" stroke="#7ebf73" stroke-width="1.51"/><path d="M1371,984L1439,1159L1523,1025Z" fill="#228445" stroke="#228445" stroke-width="1.51"/><path d="M1379,356L1354,530L1459,361Z" fill="#69b66b" stroke="#69b66b" stroke-width="1.51"/><path d="M1307,890L1371,984L1482,808Z" fill="#31944e" stroke="#31944e" stroke-width="1.51"/><path d="M1487,83L1309,193L1513,192Z" fill="#86c076" stroke="#86c076" stroke-width="1.51"/><path d="M299,1269L92,1309L785,1332Z" fill="#6f9b64" stroke="#6f9b64" stroke-width="1.51"/><path d="M1303,101L1309,193L1487,83Z" fill="#8dc67a" stroke="#8dc67a" stroke-width="1.51"/><path d="M1333,-164L1310,-39L1503,-75Z" fill="#9ccc85" stroke="#9ccc85" stroke-width="1.51"/><path d="M1310,-39L1303,101L1487,83Z" fill="#93c97e" stroke="#93c97e" stroke-width="1.51"/><path d="M1439,1159L1287,1287L1479,1277Z" fill="#1c7841" stroke="#1c7841" stroke-width="1.51"/><path d="M1341,652L1307,890L1479,735Z" fill="#3ba257" stroke="#3ba257" stroke-width="1.51"/><path d="M1479,735L1307,890L1482,808Z" fill="#359a52" stroke="#359a52" stroke-width="1.51"/><path d="M1229,738L1307,890L1341,652Z" fill="#3fa75a" stroke="#3fa75a" stroke-width="1.51"/><path d="M1371,984L1283,1123L1439,1159Z" fill="#248747" stroke="#248747" stroke-width="1.51"/><path d="M1283,1123L1287,1287L1439,1159Z" fill="#218145" stroke="#218145" stroke-width="1.51"/><path d="M873,-248L1062,-189L1218,-222Z" fill="#b5dea3" stroke="#b5dea3" stroke-width="1.51"/><path d="M1194,254L1224,364L1309,193Z" fill="#84c879" stroke="#84c879" stroke-width="1.51"/><path d="M1224,364L1229,525L1354,530Z" fill="#67bc6e" stroke="#67bc6e" stroke-width="1.51"/><path d="M1224,364L1354,530L1379,356Z" fill="#6dbb6e" stroke="#6dbb6e" stroke-width="1.51"/><path d="M1309,193L1224,364L1379,356Z" fill="#7cc274" stroke="#7cc274" stroke-width="1.51"/><path d="M1229,525L1341,652L1354,530Z" fill="#58b367" stroke="#58b367" stroke-width="1.51"/><path d="M1139,1013L1283,1123L1371,984Z" fill="#2d914d" stroke="#2d914d" stroke-width="1.51"/><path d="M1212,891L1139,1013L1371,984Z" fill="#349850" stroke="#349850" stroke-width="1.51"/><path d="M1307,890L1212,891L1371,984Z" fill="#339850" stroke="#339850" stroke-width="1.51"/><path d="M1139,1013L1221,1128L1283,1123Z" fill="#2f8f4e" stroke="#2f8f4e" stroke-width="1.51"/><path d="M1283,1123L1221,1128L1287,1287Z" fill="#258749" stroke="#258749" stroke-width="1.51"/><path d="M1229,738L1212,891L1307,890Z" fill="#3ca257" stroke="#3ca257" stroke-width="1.51"/><path d="M1222,86L1303,101L1310,-39Z" fill="#97cf82" stroke="#97cf82" stroke-width="1.51"/><path d="M1184,-77L1310,-39L1333,-164Z" fill="#a1d38b" stroke="#a1d38b" stroke-width="1.51"/><path d="M1229,525L1229,738L1341,652Z" fill="#50b164" stroke="#50b164" stroke-width="1.51"/><path d="M1221,1128L1198,1275L1287,1287Z" fill="#278348" stroke="#278348" stroke-width="1.51"/><path d="M1218,-222L1184,-77L1333,-164Z" fill="#a4d592" stroke="#a4d592" stroke-width="1.51"/><path d="M625,1280L299,1269L785,1332Z" fill="#63975f" stroke="#63975f" stroke-width="1.51"/><path d="M1303,101L1222,86L1309,193Z" fill="#91cd7e" stroke="#91cd7e" stroke-width="1.51"/><path d="M1222,86L1194,254L1309,193Z" fill="#8ecc7e" stroke="#8ecc7e" stroke-width="1.51"/><path d="M1184,-77L1222,86L1310,-39Z" fill="#9ed388" stroke="#9ed388" stroke-width="1.51"/><path d="M1062,-189L1184,-77L1218,-222Z" fill="#acd998" stroke="#acd998" stroke-width="1.51"/><path d="M1003,1184L1198,1275L1221,1128Z" fill="#328b4d" stroke="#328b4d" stroke-width="1.51"/><path d="M1184,-77L987,60L1222,86Z" fill="#a4d78b" stroke="#a4d78b" stroke-width="1.51"/><path d="M1029,232L1194,254L1222,86Z" fill="#94d082" stroke="#94d082" stroke-width="1.51"/><path d="M1194,254L1057,389L1224,364Z" fill="#83c97a" stroke="#83c97a" stroke-width="1.51"/><path d="M1224,364L1057,389L1229,525Z" fill="#76c375" stroke="#76c375" stroke-width="1.51"/><path d="M1057,389L985,505L1229,525Z" fill="#76c476" stroke="#76c476" stroke-width="1.51"/><path d="M985,505L1003,744L1229,525Z" fill="#68be70" stroke="#68be70" stroke-width="1.51"/><path d="M1027,793L1212,891L1229,738Z" fill="#48a95e" stroke="#48a95e" stroke-width="1.51"/><path d="M1229,525L1003,744L1229,738Z" fill="#57b567" stroke="#57b567" stroke-width="1.51"/><path d="M1003,744L1027,793L1229,738Z" fill="#51b264" stroke="#51b264" stroke-width="1.51"/><path d="M987,60L1029,232L1222,86Z" fill="#a0d688" stroke="#a0d688" stroke-width="1.51"/><path d="M1139,1013L1003,1184L1221,1128Z" fill="#389251" stroke="#389251" stroke-width="1.51"/><path d="M1027,793L1139,1013L1212,891Z" fill="#44a259" stroke="#44a259" stroke-width="1.51"/><path d="M1031,1016L1003,1184L1139,1013Z" fill="#409855" stroke="#409855" stroke-width="1.51"/><path d="M1027,793L1031,1016L1139,1013Z" fill="#47a159" stroke="#47a159" stroke-width="1.51"/><path d="M1028,-105L987,60L1184,-77Z" fill="#aedb91" stroke="#aedb91" stroke-width="1.51"/><path d="M1029,232L1057,389L1194,254Z" fill="#8dce7f" stroke="#8dce7f" stroke-width="1.51"/><path d="M1003,1184L986,1281L1198,1275Z" fill="#39894f" stroke="#39894f" stroke-width="1.51"/><path d="M1062,-189L1028,-105L1184,-77Z" fill="#afdc97" stroke="#afdc97" stroke-width="1.51"/><path d="M985,505L913,658L1003,744Z" fill="#6cbf72" stroke="#6cbf72" stroke-width="1.51"/><path d="M834,1285L785,1332L986,1281Z" fill="#4a8c54" stroke="#4a8c54" stroke-width="1.51"/><path d="M987,60L931,95L1029,232Z" fill="#a8da8d" stroke="#a8da8d" stroke-width="1.51"/><path d="M1027,793L874,969L1031,1016Z" fill="#50a65e" stroke="#50a65e" stroke-width="1.51"/><path d="M1029,232L930,258L1057,389Z" fill="#94d283" stroke="#94d283" stroke-width="1.51"/><path d="M873,-248L1028,-105L1062,-189Z" fill="#b9e1a2" stroke="#b9e1a2" stroke-width="1.51"/><path d="M832,845L874,969L1027,793Z" fill="#5aaf64" stroke="#5aaf64" stroke-width="1.51"/><path d="M857,397L985,505L1057,389Z" fill="#86cc7e" stroke="#86cc7e" stroke-width="1.51"/><path d="M930,258L857,397L1057,389Z" fill="#92d183" stroke="#92d183" stroke-width="1.51"/><path d="M857,397L906,504L985,505Z" fill="#86cc7e" stroke="#86cc7e" stroke-width="1.51"/><path d="M852,-32L987,60L1028,-105Z" fill="#b5e096" stroke="#b5e096" stroke-width="1.51"/><path d="M873,-248L852,-32L1028,-105Z" fill="#bee39f" stroke="#bee39f" stroke-width="1.51"/><path d="M931,95L930,258L1029,232Z" fill="#a2d88a" stroke="#a2d88a" stroke-width="1.51"/><path d="M831,1112L1003,1184L1031,1016Z" fill="#489a59" stroke="#489a59" stroke-width="1.51"/><path d="M874,969L831,1112L1031,1016Z" fill="#51a15c" stroke="#51a15c" stroke-width="1.51"/><path d="M906,504L913,658L985,505Z" fill="#79c679" stroke="#79c679" stroke-width="1.51"/><path d="M1003,744L832,845L1027,793Z" fill="#5bb468" stroke="#5bb468" stroke-width="1.51"/><path d="M834,1285L986,1281L1003,1184Z" fill="#448e54" stroke="#448e54" stroke-width="1.51"/><path d="M831,1112L834,1285L1003,1184Z" fill="#4b9558" stroke="#4b9558" stroke-width="1.51"/><path d="M913,658L832,845L1003,744Z" fill="#62b96c" stroke="#62b96c" stroke-width="1.51"/><path d="M852,-32L931,95L987,60Z" fill="#b4df94" stroke="#b4df94" stroke-width="1.51"/><path d="M786,713L832,845L913,658Z" fill="#6abe6f" stroke="#6abe6f" stroke-width="1.51"/><path d="M906,504L747,515L913,658Z" fill="#7fc97b" stroke="#7fc97b" stroke-width="1.51"/><path d="M707,199L857,397L930,258Z" fill="#a4d98a" stroke="#a4d98a" stroke-width="1.51"/><path d="M852,-32L735,64L931,95Z" fill="#bae296" stroke="#bae296" stroke-width="1.51"/><path d="M707,199L930,258L931,95Z" fill="#acdd8e" stroke="#acdd8e" stroke-width="1.51"/><path d="M735,64L707,199L931,95Z" fill="#b8e294" stroke="#b8e294" stroke-width="1.51"/><path d="M707,199L712,389L857,397Z" fill="#a5da8b" stroke="#a5da8b" stroke-width="1.51"/><path d="M698,-49L852,-32L873,-248Z" fill="#c6e7a2" stroke="#c6e7a2" stroke-width="1.51"/><path d="M692,-240L698,-49L873,-248Z" fill="#cceaaa" stroke="#cceaaa" stroke-width="1.51"/><path d="M747,515L786,713L913,658Z" fill="#7bc678" stroke="#7bc678" stroke-width="1.51"/><path d="M831,1112L781,1121L834,1285Z" fill="#529a5b" stroke="#529a5b" stroke-width="1.51"/><path d="M857,397L747,515L906,504Z" fill="#8ccf81" stroke="#8ccf81" stroke-width="1.51"/><path d="M734,974L781,1121L831,1112Z" fill="#5ba35f" stroke="#5ba35f" stroke-width="1.51"/><path d="M832,845L734,974L874,969Z" fill="#60ac64" stroke="#60ac64" stroke-width="1.51"/><path d="M734,974L831,1112L874,969Z" fill="#5ba560" stroke="#5ba560" stroke-width="1.51"/><path d="M710,877L734,974L832,845Z" fill="#67b168" stroke="#67b168" stroke-width="1.51"/><path d="M712,389L747,515L857,397Z" fill="#97d385" stroke="#97d385" stroke-width="1.51"/><path d="M698,-49L735,64L852,-32Z" fill="#c4e79c" stroke="#c4e79c" stroke-width="1.51"/><path d="M439,1239L299,1269L625,1280Z" fill="#6d9d63" stroke="#6d9d63" stroke-width="1.51"/><path d="M707,199L637,291L712,389Z" fill="#b0de8f" stroke="#b0de8f" stroke-width="1.51"/><path d="M781,1121L625,1280L785,1332Z" fill="#58965b" stroke="#58965b" stroke-width="1.51"/><path d="M786,713L710,877L832,845Z" fill="#6cb96d" stroke="#6cb96d" stroke-width="1.51"/><path d="M781,1121L785,1332L834,1285Z" fill="#529359" stroke="#529359" stroke-width="1.51"/><path d="M559,540L639,734L747,515Z" fill="#8dcf80" stroke="#8dcf80" stroke-width="1.51"/><path d="M559,1188L625,1280L781,1121Z" fill="#609d5f" stroke="#609d5f" stroke-width="1.51"/><path d="M734,974L568,1015L781,1121Z" fill="#65a864" stroke="#65a864" stroke-width="1.51"/><path d="M747,515L639,734L786,713Z" fill="#80c879" stroke="#80c879" stroke-width="1.51"/><path d="M639,734L710,877L786,713Z" fill="#74bf71" stroke="#74bf71" stroke-width="1.51"/><path d="M568,1015L559,1188L781,1121Z" fill="#66a663" stroke="#66a663" stroke-width="1.51"/><path d="M463,-265L585,-202L692,-240Z" fill="#dbf0b7" stroke="#dbf0b7" stroke-width="1.51"/><path d="M692,-240L585,-202L698,-49Z" fill="#d4edac" stroke="#d4edac" stroke-width="1.51"/><path d="M593,132L707,199L735,64Z" fill="#c1e698" stroke="#c1e698" stroke-width="1.51"/><path d="M712,389L559,540L747,515Z" fill="#9ad586" stroke="#9ad586" stroke-width="1.51"/><path d="M585,-202L614,-36L698,-49Z" fill="#d5eea6" stroke="#d5eea6" stroke-width="1.51"/><path d="M639,734L600,868L710,877Z" fill="#76bd70" stroke="#76bd70" stroke-width="1.51"/><path d="M710,877L600,868L734,974Z" fill="#6eb46a" stroke="#6eb46a" stroke-width="1.51"/><path d="M600,868L568,1015L734,974Z" fill="#6fb168" stroke="#6fb168" stroke-width="1.51"/><path d="M698,-49L614,-36L735,64Z" fill="#cbea9e" stroke="#cbea9e" stroke-width="1.51"/><path d="M614,-36L593,132L735,64Z" fill="#cae99d" stroke="#cae99d" stroke-width="1.51"/><path d="M637,291L592,346L712,389Z" fill="#addd8e" stroke="#addd8e" stroke-width="1.51"/><path d="M592,346L559,540L712,389Z" fill="#a5d98b" stroke="#a5d98b" stroke-width="1.51"/><path d="M593,132L637,291L707,199Z" fill="#bce495" stroke="#bce495" stroke-width="1.51"/><path d="M585,-202L428,-68L614,-36Z" fill="#dbf0aa" stroke="#dbf0aa" stroke-width="1.51"/><path d="M447,89L593,132L614,-36Z" fill="#d0eca0" stroke="#d0eca0" stroke-width="1.51"/><path d="M593,132L479,266L637,291Z" fill="#bfe596" stroke="#bfe596" stroke-width="1.51"/><path d="M479,266L592,346L637,291Z" fill="#b7e292" stroke="#b7e292" stroke-width="1.51"/><path d="M559,540L418,647L639,734Z" fill="#91cf80" stroke="#91cf80" stroke-width="1.51"/><path d="M395,832L600,868L639,734Z" fill="#7fc175" stroke="#7fc175" stroke-width="1.51"/><path d="M418,647L395,832L639,734Z" fill="#8aca7b" stroke="#8aca7b" stroke-width="1.51"/><path d="M442,509L559,540L592,346Z" fill="#a6da8c" stroke="#a6da8c" stroke-width="1.51"/><path d="M559,1188L439,1239L625,1280Z" fill="#689e62" stroke="#689e62" stroke-width="1.51"/><path d="M440,1127L559,1188L568,1015Z" fill="#6ea967" stroke="#6ea967" stroke-width="1.51"/><path d="M411,384L442,509L592,346Z" fill="#b0de90" stroke="#b0de90" stroke-width="1.51"/><path d="M428,-68L447,89L614,-36Z" fill="#d9f0a5" stroke="#d9f0a5" stroke-width="1.51"/><path d="M395,832L382,1009L568,1015Z" fill="#7db66e" stroke="#7db66e" stroke-width="1.51"/><path d="M447,89L479,266L593,132Z" fill="#cbea9c" stroke="#cbea9c" stroke-width="1.51"/><path d="M395,832L568,1015L600,868Z" fill="#7ab96f" stroke="#7ab96f" stroke-width="1.51"/><path d="M463,-265L428,-68L585,-202Z" fill="#e1f3b4" stroke="#e1f3b4" stroke-width="1.51"/><path d="M479,266L411,384L592,346Z" fill="#b9e394" stroke="#b9e394" stroke-width="1.51"/><path d="M442,509L418,647L559,540Z" fill="#9fd688" stroke="#9fd688" stroke-width="1.51"/><path d="M382,1009L440,1127L568,1015Z" fill="#76af6b" stroke="#76af6b" stroke-width="1.51"/><path d="M440,1127L439,1239L559,1188Z" fill="#6ea466" stroke="#6ea466" stroke-width="1.51"/><path d="M86,-242L283,-157L463,-265Z" fill="#eff9c0" stroke="#eff9c0" stroke-width="1.51"/><path d="M283,-157L428,-68L463,-265Z" fill="#e8f6b6" stroke="#e8f6b6" stroke-width="1.51"/><path d="M447,89L298,242L479,266Z" fill="#ceeb9e" stroke="#ceeb9e" stroke-width="1.51"/><path d="M298,242L411,384L479,266Z" fill="#c5e799" stroke="#c5e799" stroke-width="1.51"/><path d="M298,242L312,364L411,384Z" fill="#c5e799" stroke="#c5e799" stroke-width="1.51"/><path d="M307,591L418,647L442,509Z" fill="#a3d78a" stroke="#a3d78a" stroke-width="1.51"/><path d="M428,-68L238,61L447,89Z" fill="#e0f3a8" stroke="#e0f3a8" stroke-width="1.51"/><path d="M247,681L395,832L418,647Z" fill="#95cf81" stroke="#95cf81" stroke-width="1.51"/><path d="M382,1009L275,1103L440,1127Z" fill="#7cb06d" stroke="#7cb06d" stroke-width="1.51"/><path d="M299,1269L439,1239L440,1127Z" fill="#73a467" stroke="#73a467" stroke-width="1.51"/><path d="M275,1103L299,1269L440,1127Z" fill="#78aa6b" stroke="#78aa6b" stroke-width="1.51"/><path d="M411,384L312,364L442,509Z" fill="#b7e193" stroke="#b7e193" stroke-width="1.51"/><path d="M238,61L298,242L447,89Z" fill="#daf1a4" stroke="#daf1a4" stroke-width="1.51"/><path d="M247,681L261,816L395,832Z" fill="#93cc7f" stroke="#93cc7f" stroke-width="1.51"/><path d="M312,364L307,591L442,509Z" fill="#b1de90" stroke="#b1de90" stroke-width="1.51"/><path d="M264,-114L238,61L428,-68Z" fill="#e8f6ae" stroke="#e8f6ae" stroke-width="1.51"/><path d="M282,1013L382,1009L395,832Z" fill="#84b972" stroke="#84b972" stroke-width="1.51"/><path d="M283,-157L264,-114L428,-68Z" fill="#ebf7b3" stroke="#ebf7b3" stroke-width="1.51"/><path d="M261,816L282,1013L395,832Z" fill="#8ac177" stroke="#8ac177" stroke-width="1.51"/><path d="M307,591L247,681L418,647Z" fill="#a0d588" stroke="#a0d588" stroke-width="1.51"/><path d="M282,1013L275,1103L382,1009Z" fill="#81b470" stroke="#81b470" stroke-width="1.51"/><path d="M261,816L149,974L282,1013Z" fill="#8bbd77" stroke="#8bbd77" stroke-width="1.51"/><path d="M238,61L173,250L298,242Z" fill="#d9f0a4" stroke="#d9f0a4" stroke-width="1.51"/><path d="M275,1103L87,1137L299,1269Z" fill="#7eac6f" stroke="#7eac6f" stroke-width="1.51"/><path d="M161,360L103,579L307,591Z" fill="#b6e095" stroke="#b6e095" stroke-width="1.51"/><path d="M298,242L173,250L312,364Z" fill="#cdeb9e" stroke="#cdeb9e" stroke-width="1.51"/><path d="M173,250L161,360L312,364Z" fill="#cbea9e" stroke="#cbea9e" stroke-width="1.51"/><path d="M161,360L307,591L312,364Z" fill="#bbe396" stroke="#bbe396" stroke-width="1.51"/><path d="M87,1137L92,1309L299,1269Z" fill="#7ea66f" stroke="#7ea66f" stroke-width="1.51"/><path d="M103,579L247,681L307,591Z" fill="#a8d98d" stroke="#a8d98d" stroke-width="1.51"/><path d="M99,-62L238,61L264,-114Z" fill="#edf8b2" stroke="#edf8b2" stroke-width="1.51"/><path d="M117,822L149,974L261,816Z" fill="#92c57d" stroke="#92c57d" stroke-width="1.51"/><path d="M149,974L275,1103L282,1013Z" fill="#85b673" stroke="#85b673" stroke-width="1.51"/><path d="M86,-242L264,-114L283,-157Z" fill="#f2fabe" stroke="#f2fabe" stroke-width="1.51"/><path d="M79,114L173,250L238,61Z" fill="#e2f4a9" stroke="#e2f4a9" stroke-width="1.51"/><path d="M247,681L117,822L261,816Z" fill="#98ce83" stroke="#98ce83" stroke-width="1.51"/><path d="M149,974L87,1137L275,1103Z" fill="#86b574" stroke="#86b574" stroke-width="1.51"/><path d="M92,684L117,822L247,681Z" fill="#9fd388" stroke="#9fd388" stroke-width="1.51"/><path d="M86,-242L99,-62L264,-114Z" fill="#f4fbbc" stroke="#f4fbbc" stroke-width="1.51"/><path d="M29,489L103,579L161,360Z" fill="#bfe49a" stroke="#bfe49a" stroke-width="1.51"/><path d="M103,579L92,684L247,681Z" fill="#a8d98e" stroke="#a8d98e" stroke-width="1.51"/><path d="M99,-62L79,114L238,61Z" fill="#eaf7b0" stroke="#eaf7b0" stroke-width="1.51"/><path d="M40,-28L79,114L99,-62Z" fill="#f0f9b4" stroke="#f0f9b4" stroke-width="1.51"/><path d="M86,-242L39,-180L99,-62Z" fill="#f9fcc2" stroke="#f9fcc2" stroke-width="1.51"/><path d="M15,395L29,489L161,360Z" fill="#c8e89f" stroke="#c8e89f" stroke-width="1.51"/><path d="M-8,279L161,360L173,250Z" fill="#d4eda3" stroke="#d4eda3" stroke-width="1.51"/><path d="M79,114L-8,279L173,250Z" fill="#def2a8" stroke="#def2a8" stroke-width="1.51"/><path d="M117,822L-24,949L149,974Z" fill="#94c37e" stroke="#94c37e" stroke-width="1.51"/><path d="M-24,949L87,1137L149,974Z" fill="#8eba79" stroke="#8eba79" stroke-width="1.51"/><path d="M-8,279L15,395L161,360Z" fill="#d1eca3" stroke="#d1eca3" stroke-width="1.51"/><path d="M-10,137L-8,279L79,114Z" fill="#e4f4ae" stroke="#e4f4ae" stroke-width="1.51"/><path d="M-71,1145L37,1324L87,1137Z" fill="#85ac76" stroke="#85ac76" stroke-width="1.51"/><path d="M-24,949L-71,1145L87,1137Z" fill="#8cb77c" stroke="#8cb77c" stroke-width="1.51"/><path d="M87,1137L37,1324L92,1309Z" fill="#82a770" stroke="#82a770" stroke-width="1.51"/><path d="M92,684L-48,694L117,822Z" fill="#a3d58b" stroke="#a3d58b" stroke-width="1.51"/><path d="M-48,694L-39,852L117,822Z" fill="#9fd08a" stroke="#9fd08a" stroke-width="1.51"/><path d="M-39,852L-24,949L117,822Z" fill="#99c784" stroke="#99c784" stroke-width="1.51"/><path d="M39,-180L40,-28L99,-62Z" fill="#f8fcba" stroke="#f8fcba" stroke-width="1.51"/><path d="M-48,694L92,684L103,579Z" fill="#acda92" stroke="#acda92" stroke-width="1.51"/><path d="M29,489L-48,694L103,579Z" fill="#b4de97" stroke="#b4de97" stroke-width="1.51"/><path d="M40,-28L-10,137L79,114Z" fill="#edf8b2" stroke="#edf8b2" stroke-width="1.51"/><path d="M-138,-249L39,-180L86,-242Z" fill="#fbfdcd" stroke="#fbfdcd" stroke-width="1.51"/><path d="M-129,638L-48,694L29,489Z" fill="#b3dd9c" stroke="#b3dd9c" stroke-width="1.51"/><path d="M-136,984L-71,1145L-24,949Z" fill="#90bb83" stroke="#90bb83" stroke-width="1.51"/><path d="M-155,569L-129,638L29,489Z" fill="#b8e0a1" stroke="#b8e0a1" stroke-width="1.51"/><path d="M-71,1145L-146,1246L37,1324Z" fill="#85a97a" stroke="#85a97a" stroke-width="1.51"/><path d="M-138,-249L-211,-10L39,-180Z" fill="#fbfdcc" stroke="#fbfdcc" stroke-width="1.51"/><path d="M39,-180L-211,-10L40,-28Z" fill="#f8fdc0" stroke="#f8fdc0" stroke-width="1.51"/><path d="M-211,-10L-143,79L40,-28Z" fill="#f3fbc0" stroke="#f3fbc0" stroke-width="1.51"/><path d="M-143,79L-10,137L40,-28Z" fill="#eef9b8" stroke="#eef9b8" stroke-width="1.51"/><path d="M15,395L-130,432L29,489Z" fill="#c7e7a4" stroke="#c7e7a4" stroke-width="1.51"/><path d="M-130,432L-155,569L29,489Z" fill="#c0e4a5" stroke="#c0e4a5" stroke-width="1.51"/><path d="M-10,137L-146,221L-8,279Z" fill="#e1f3b2" stroke="#e1f3b2" stroke-width="1.51"/><path d="M-8,279L-130,432L15,395Z" fill="#cfeba9" stroke="#cfeba9" stroke-width="1.51"/><path d="M-48,694L-146,865L-39,852Z" fill="#9fcf90" stroke="#9fcf90" stroke-width="1.51"/><path d="M-146,221L-130,432L-8,279Z" fill="#d7efb0" stroke="#d7efb0" stroke-width="1.51"/><path d="M-143,79L-146,221L-10,137Z" fill="#e9f6b8" stroke="#e9f6b8" stroke-width="1.51"/><path d="M-39,852L-146,865L-24,949Z" fill="#99c689" stroke="#99c689" stroke-width="1.51"/><path d="M-146,865L-136,984L-24,949Z" fill="#96c388" stroke="#96c388" stroke-width="1.51"/><path d="M-129,638L-146,865L-48,694Z" fill="#a5d697" stroke="#a5d697" stroke-width="1.51"/><path d="M-136,984L-187,1191L-71,1145Z" fill="#8cb584" stroke="#8cb584" stroke-width="1.51"/><path d="M-187,1191L-146,1246L-71,1145Z" fill="#87ae81" stroke="#87ae81" stroke-width="1.51"/><path d="M-146,221L-155,569L-130,432Z" fill="#cceaae" stroke="#cceaae" stroke-width="1.51"/><path d="M-155,569L-146,865L-129,638Z" fill="#abd89c" stroke="#abd89c" stroke-width="1.51"/><path d="M-211,-10L-155,569L-146,221Z" fill="#ddf1b8" stroke="#ddf1b8" stroke-width="1.51"/><path d="M-211,-10L-146,221L-143,79Z" fill="#edf8c0" stroke="#edf8c0" stroke-width="1.51"/><path d="M-146,865L-187,1191L-136,984Z" fill="#92bc89" stroke="#92bc89" stroke-width="1.51"/><path d="M-155,569L-187,1191L-146,865Z" fill="#9bc891" stroke="#9bc891" stroke-width="1.51"/><path d="M-211,-10L-187,1191L-155,569Z" fill="#b7dfa7" stroke="#b7dfa7" stroke-width="1.51"/></svg>