<?xml version="1.0" encoding="UTF-8" standalone="no"?>
<!-- Generator: Adobe Illustrator 15.0.0, SVG Export Plug-In . SVG Version: 6.00 Build 0)  -->

<svg
   xmlns:dc="http://purl.org/dc/elements/1.1/"
   xmlns:cc="http://creativecommons.org/ns#"
   xmlns:rdf="http://www.w3.org/1999/02/22-rdf-syntax-ns#"
   xmlns:svg="http://www.w3.org/2000/svg"
   xmlns="http://www.w3.org/2000/svg"
   xmlns:sodipodi="http://sodipodi.sourceforge.net/DTD/sodipodi-0.dtd"
   xmlns:inkscape="http://www.inkscape.org/namespaces/inkscape"
   version="1.1"
   id="Layer_1"
   x="0px"
   y="0px"
   width="43.343px"
   height="25.562px"
   viewBox="0 0 43.343 25.562"
   style="enable-background:new 0 0 43.343 25.562;"
   xml:space="preserve"
   inkscape:version="0.48.4 r9939"
   sodipodi:docname="03d.svg"><metadata
     id="metadata8"><rdf:RDF><cc:Work
         rdf:about=""><dc:format>image/svg+xml</dc:format><dc:type
           rdf:resource="http://purl.org/dc/dcmitype/StillImage" /></cc:Work></rdf:RDF></metadata><defs
     id="defs6" /><sodipodi:namedview
     pagecolor="#ffffff"
     bordercolor="#666666"
     borderopacity="1"
     objecttolerance="10"
     gridtolerance="10"
     guidetolerance="10"
     inkscape:pageopacity="0"
     inkscape:pageshadow="2"
     inkscape:window-width="640"
     inkscape:window-height="480"
     id="namedview4"
     showgrid="false"
     inkscape:zoom="8.9287777"
     inkscape:cx="21.671499"
     inkscape:cy="12.781"
     inkscape:window-x="0"
     inkscape:window-y="28"
     inkscape:window-maximized="0"
     inkscape:current-layer="Layer_1" /><path
     id="_x30_4"
     style="fill:#ffffff"
     d="M35.771,25.562c4.182,0,7.57-3.392,7.57-7.571c0,0,0.039-7.564-7.92-7.564  C33.701,3.34,27.07,2.981,25.21,3.481C23.193,1.474,19.836,0,16.441,0C9.711,0,4.193,5.205,3.697,11.81  C1.488,13.083,0,15.464,0,18.195c0,4.071,3.297,7.368,7.365,7.368L35.771,25.562L35.771,25.562z M8.004,22.742  c-2.752,0-4.781-1.991-4.781-4.567c0-2.104,1.336-3.948,3.424-4.579c0.248-9.943,8.984-10.451,9.955-10.451  c2.885,0,5.748,1.415,7.59,3.51c3.728-1.224,8.83,1.647,8.261,7.201c1.452-0.59,2.907-0.543,3.323-0.543  c2.088,0,4.606,1.826,4.606,4.821c0,2.547-2.063,4.608-4.606,4.608H8.004z" /></svg>