<?xml version="1.0" encoding="UTF-8" standalone="no"?>
<!-- Generator: Adobe Illustrator 15.0.0, SVG Export Plug-In . SVG Version: 6.00 Build 0)  -->

<svg
   xmlns:dc="http://purl.org/dc/elements/1.1/"
   xmlns:cc="http://creativecommons.org/ns#"
   xmlns:rdf="http://www.w3.org/1999/02/22-rdf-syntax-ns#"
   xmlns:svg="http://www.w3.org/2000/svg"
   xmlns="http://www.w3.org/2000/svg"
   xmlns:sodipodi="http://sodipodi.sourceforge.net/DTD/sodipodi-0.dtd"
   xmlns:inkscape="http://www.inkscape.org/namespaces/inkscape"
   version="1.1"
   id="Layer_1"
   x="0px"
   y="0px"
   width="43.243px"
   height="34.461px"
   viewBox="0 0 43.243 34.461"
   style="enable-background:new 0 0 43.243 34.461;"
   xml:space="preserve"
   inkscape:version="0.48.4 r9939"
   sodipodi:docname="09d.svg"><metadata
     id="metadata20"><rdf:RDF><cc:Work
         rdf:about=""><dc:format>image/svg+xml</dc:format><dc:type
           rdf:resource="http://purl.org/dc/dcmitype/StillImage" /></cc:Work></rdf:RDF></metadata><defs
     id="defs18" /><sodipodi:namedview
     pagecolor="#ffffff"
     bordercolor="#666666"
     borderopacity="1"
     objecttolerance="10"
     gridtolerance="10"
     guidetolerance="10"
     inkscape:pageopacity="0"
     inkscape:pageshadow="2"
     inkscape:window-width="640"
     inkscape:window-height="480"
     id="namedview16"
     showgrid="false"
     inkscape:zoom="6.8483216"
     inkscape:cx="21.6215"
     inkscape:cy="17.230499"
     inkscape:window-x="0"
     inkscape:window-y="28"
     inkscape:window-maximized="0"
     inkscape:current-layer="Layer_1" /><g
     id="_x32_1"
     style="fill:#ffffff"><path
       style="fill:#ffffff"
       d="M32.375,13.823c1.451-0.588,2.902-0.541,3.318-0.541c2.081,0,4.598,1.82,4.598,4.81   c0,2.539-2.061,4.598-4.598,4.598h-0.207c-0.775,0-1.406,0.631-1.406,1.409c0,0.774,0.631,1.403,1.406,1.403h0.201   c4.172,0,7.555-3.381,7.555-7.555c0,0,0.039-7.546-7.902-7.546c-1.717-7.069-8.332-7.428-10.188-6.929C23.14,1.47,19.79,0,16.403,0   C9.687,0,4.185,5.192,3.688,11.783C1.485,13.052,0,15.429,0,18.153c0,4.061,3.291,7.35,7.349,7.35h0.999   c0.637,0,1.234-0.688,1.234-1.406c0-0.776-0.629-1.406-1.406-1.406h-0.19c-2.744,0-4.77-1.986-4.77-4.557   c0-2.099,1.333-3.94,3.417-4.568c0.247-9.922,8.962-10.429,9.93-10.429c2.878,0,5.734,1.413,7.572,3.503   C27.852,5.418,32.946,8.283,32.375,13.823z"
       id="path4" /><path
       style="fill:#ffffff"
       d="M16.153,23.374c0.414-0.715,0.168-1.627-0.545-2.039c-0.715-0.412-1.628-0.168-2.04,0.545   l-1.658,2.873c-0.412,0.713-0.168,1.627,0.546,2.039c0.715,0.414,1.627,0.168,2.041-0.545L16.153,23.374z"
       id="path6" /><path
       style="fill:#ffffff"
       d="M23.893,23.374c0.412-0.715,0.168-1.627-0.546-2.039c-0.716-0.412-1.628-0.168-2.04,0.545   l-1.658,2.873c-0.412,0.713-0.168,1.627,0.546,2.039c0.715,0.414,1.628,0.168,2.04-0.545L23.893,23.374z"
       id="path8" /><path
       style="fill:#ffffff"
       d="M17.042,30.842c0.412-0.713,0.168-1.627-0.546-2.038c-0.714-0.412-1.627-0.167-2.04,0.546   l-1.657,2.872c-0.413,0.715-0.168,1.629,0.546,2.04c0.714,0.412,1.627,0.167,2.04-0.547L17.042,30.842z"
       id="path10" /><path
       style="fill:#ffffff"
       d="M31.631,23.374c0.412-0.715,0.168-1.627-0.547-2.039s-1.629-0.168-2.041,0.545l-1.658,2.873   c-0.411,0.713-0.166,1.627,0.548,2.039c0.715,0.414,1.627,0.168,2.039-0.545L31.631,23.374z"
       id="path12" /><path
       style="fill:#ffffff"
       d="M24.78,30.842c0.413-0.713,0.168-1.627-0.547-2.038c-0.715-0.412-1.627-0.167-2.039,0.546   l-1.658,2.872c-0.412,0.715-0.168,1.629,0.547,2.04c0.715,0.412,1.628,0.167,2.039-0.547L24.78,30.842z"
       id="path14" /></g></svg>