<?xml version="1.0" encoding="UTF-8" standalone="no"?>
<!-- Generator: Adobe Illustrator 15.0.0, SVG Export Plug-In . SVG Version: 6.00 Build 0)  -->

<svg
   xmlns:dc="http://purl.org/dc/elements/1.1/"
   xmlns:cc="http://creativecommons.org/ns#"
   xmlns:rdf="http://www.w3.org/1999/02/22-rdf-syntax-ns#"
   xmlns:svg="http://www.w3.org/2000/svg"
   xmlns="http://www.w3.org/2000/svg"
   xmlns:sodipodi="http://sodipodi.sourceforge.net/DTD/sodipodi-0.dtd"
   xmlns:inkscape="http://www.inkscape.org/namespaces/inkscape"
   version="1.1"
   id="Layer_1"
   x="0px"
   y="0px"
   width="43.17px"
   height="36.589px"
   viewBox="0 0 43.17 36.589"
   style="enable-background:new 0 0 43.17 36.589;"
   xml:space="preserve"
   inkscape:version="0.48.4 r9939"
   sodipodi:docname="50n.svg"><metadata
     id="metadata22"><rdf:RDF><cc:Work
         rdf:about=""><dc:format>image/svg+xml</dc:format><dc:type
           rdf:resource="http://purl.org/dc/dcmitype/StillImage" /></cc:Work></rdf:RDF></metadata><defs
     id="defs20" /><sodipodi:namedview
     pagecolor="#ffffff"
     bordercolor="#666666"
     borderopacity="1"
     objecttolerance="10"
     gridtolerance="10"
     guidetolerance="10"
     inkscape:pageopacity="0"
     inkscape:pageshadow="2"
     inkscape:window-width="640"
     inkscape:window-height="480"
     id="namedview18"
     showgrid="false"
     inkscape:zoom="6.4500258"
     inkscape:cx="21.584999"
     inkscape:cy="18.2945"
     inkscape:window-x="0"
     inkscape:window-y="28"
     inkscape:window-maximized="0"
     inkscape:current-layer="Layer_1" /><g
     id="_x30_8"
     style="fill:#ffffff"><path
       style="fill:#ffffff"
       d="M10.627,31.394c0.822,0,1.492-0.668,1.492-1.493s-0.67-1.493-1.492-1.493H5.102   c-0.824,0-1.494,0.668-1.494,1.493s0.67,1.493,1.494,1.493H10.627z"
       id="path4" /><path
       style="fill:#ffffff"
       d="M21.717,31.394c0.824,0,1.492-0.668,1.492-1.493s-0.668-1.493-1.492-1.493h-5.525   c-0.824,0-1.494,0.668-1.494,1.493s0.67,1.493,1.494,1.493H21.717z"
       id="path6" /><path
       style="fill:#ffffff"
       d="M32.808,31.394c0.823,0,1.491-0.668,1.491-1.493s-0.668-1.493-1.491-1.493h-5.525   c-0.824,0-1.492,0.668-1.492,1.493s0.668,1.493,1.492,1.493H32.808z"
       id="path8" /><path
       style="fill:#ffffff"
       d="M16.152,36.589c0.824,0,1.492-0.668,1.492-1.492s-0.668-1.492-1.492-1.492h-5.525   c-0.826,0-1.494,0.668-1.494,1.492s0.668,1.492,1.494,1.492H16.152z"
       id="path10" /><path
       style="fill:#ffffff"
       d="M27.244,36.589c0.821,0,1.491-0.668,1.491-1.492c-0.002-0.824-0.67-1.492-1.491-1.492h-5.527   c-0.826,0-1.492,0.668-1.492,1.492s0.666,1.492,1.492,1.492H27.244z"
       id="path12" /><path
       style="fill:#ffffff"
       d="M38.332,36.589c0.824,0,1.494-0.668,1.494-1.492s-0.67-1.492-1.494-1.492h-5.524   c-0.824,0-1.492,0.668-1.492,1.492s0.668,1.492,1.492,1.492H38.332z"
       id="path14" /><path
       style="fill:#ffffff"
       d="M35.629,25.46c4.164,0,7.541-3.375,7.541-7.542c0,0,0.037-7.533-7.892-7.533   c-1.715-7.059-8.315-7.417-10.168-6.918C23.103,1.468,19.758,0,16.375,0C9.672,0,4.178,5.185,3.684,11.764   C1.482,13.03,0,15.403,0,18.123c0,4.054,3.285,7.337,7.338,7.337H35.629z M7.971,22.651c-2.74,0-4.762-1.983-4.762-4.549   c0-2.096,1.332-3.934,3.412-4.561c0.246-9.904,8.947-10.41,9.914-10.41c2.873,0,5.725,1.41,7.562,3.497   c3.709-1.219,8.795,1.641,8.227,7.172c1.447-0.587,2.896-0.542,3.312-0.542c2.076,0,4.589,1.82,4.589,4.802   c0,2.535-2.058,4.59-4.589,4.59L7.971,22.651L7.971,22.651z"
       id="path16" /></g></svg>